<svg xmlns="http://www.w3.org/2000/svg" xmlns:xlink="http://www.w3.org/1999/xlink" width="26" height="26" version="1.1" viewBox="0 0 26 26"><title>ic_more</title><desc>Created with Sketch.</desc><g id="Version-4-Prototype" fill="none" fill-rule="evenodd" stroke="none" stroke-width="1"><g id="02Learn00" fill="#12100B" transform="translate(-167.000000, -824.000000)"><g id="ic_more" transform="translate(167.000000, 824.000000)"><path id="Shape" fill-rule="nonzero" d="M13,0 C5.80666667,0 0,5.80666667 0,13 C0,20.1933333 5.80666667,26 13,26 C20.1933333,26 26,20.1933333 26,13 C26,5.80666667 20.1933333,0 13,0 Z M13,25.1034483 C6.31889655,25.1034483 0.896551724,19.6811034 0.896551724,13 C0.896551724,6.31889655 6.31889655,0.896551724 13,0.896551724 C19.6811034,0.896551724 25.1034483,6.31889655 25.1034483,13 C25.1034483,19.6811034 19.6811034,25.1034483 13,25.1034483 Z"/><rect id="Rectangle" width="5.778" height="1.444" x="10.111" y="15.167"/><rect id="Rectangle" width="2.889" height="1.444" x="11.556" y="18.056"/><polygon id="Path" points="5.778 15.167 8.667 13 5.778 10.833"/><rect id="Rectangle" width="2.889" height="1.444" x="11.556" y="6.5"/><rect id="Rectangle" width="2.889" height="1.444" x="11.556" y="12.278"/><polygon id="Path" points="20.222 15.167 20.222 10.833 17.333 13"/><rect id="Rectangle" width="5.778" height="1.444" x="10.111" y="9.389"/></g></g></g></svg>